<svg t="1714821039377" class="icon" viewBox="0 0 1027 1024" version="1.1" xmlns="http://www.w3.org/2000/svg" p-id="2806" width="200" height="200"><path d="M1018.06317 383.1148a97.161305 97.161305 0 0 0-78.700657-66.555494l-233.187133-35.463877-104.448403-222.013582a97.161305 97.161305 0 0 0-178.776802 0L318.987578 281.095429l-233.187133 35.463877A97.161305 97.161305 0 0 0 29.932695 483.190944l171.489704 175.861963-40.321942 248.247135a97.161305 97.161305 0 0 0 97.161305 114.65034 97.161305 97.161305 0 0 0 48.580653-12.630969l205.981967-113.678728 205.981967 114.164534a97.161305 97.161305 0 0 0 145.741958-102.505177l-40.321941-248.247135 171.003897-175.861963a97.161305 97.161305 0 0 0 22.832907-100.076144z" fill="#5E5C5C" p-id="2807"></path></svg>