<svg t="1714478815506" class="icon" viewBox="0 0 1024 1024" version="1.1" xmlns="http://www.w3.org/2000/svg" p-id="1010" width="200" height="200"><path d="M372.362 286.38h42.674v133.552h-42.674zM887.206 54.826h42.674v115.028h-42.674zM609.758 148.174h42.676v115.028h-42.676z" fill="#8CC153" p-id="1011"></path><path d="M888.706 304.906v71.354c0 11.778 9.56 21.338 21.338 21.338s21.336-9.56 21.336-21.338v-71.354h-42.674zM611.29 469.608a21.326 21.326 0 0 0 21.338 21.336c11.778 0 21.338-9.558 21.338-21.336v-71.384h-42.676v71.384zM373.862 554.958v71.382c0 11.778 9.56 21.338 21.336 21.338 11.808 0 21.336-9.56 21.336-21.338v-71.382h-42.672z" fill="#E6E9ED" p-id="1012"></path><path d="M1007.324 163.418c-12.402-14.244-30.272-21.804-51.704-21.804-21.054 0-35.77 11.464-45.828 24.554-10.248-13.058-25.086-24.554-46.08-24.554-20.776 0-38.894 7.748-51.016 21.774-13.872 16.028-19.15 38.394-15.308 64.73 3.56 24.338 16.026 49.142 35.084 69.822 20.21 21.962 46.266 37.084 73.382 42.52l4.218 0.876 4.216-0.876c27.116-5.466 53.202-20.556 73.448-42.488 19.18-20.742 31.614-45.61 35.02-69.978 4.658-33.334-5.808-53.516-15.432-64.576zM678.208 234.958c-21.056 0-35.77 11.466-45.83 24.554-10.248-13.056-25.086-24.554-46.112-24.554-20.742 0-38.864 7.748-51.016 21.776-13.84 16.026-19.12 38.394-15.278 64.7 3.562 24.368 15.996 49.172 35.052 69.854 20.244 21.96 46.298 37.05 73.416 42.518l4.186 0.844 4.216-0.844c27.148-5.466 53.234-20.556 73.478-42.486 19.15-20.776 31.584-45.612 35.022-70.01 4.652-33.302-5.812-53.484-15.434-64.542-12.4-14.248-30.302-21.81-51.7-21.81zM492.482 413.498c-12.402-14.276-30.272-21.804-51.704-21.804-21.056 0-35.74 11.464-45.83 24.554-10.248-13.058-25.086-24.554-46.08-24.554-20.776 0-38.894 7.748-51.016 21.774-13.838 15.996-19.12 38.394-15.276 64.7 3.53 24.37 15.996 49.142 35.052 69.854 20.212 21.962 46.298 37.052 73.384 42.52l4.218 0.844 4.218-0.844c27.116-5.466 53.234-20.556 73.478-42.488 19.15-20.774 31.584-45.61 34.99-70.01 4.684-33.336-5.812-53.486-15.434-64.546z" fill="#EC87C0" p-id="1013"></path><path d="M52.022 473.012c5 4.374 31.616 26.368 65.106 30.99 3.936 0.532 9.904 1.406 16.246 2.344 31.366 4.624 41.488 5.966 48.048 5.966 1.094 0 2.156-0.032 3.186-0.094h18.494l10.528-13.496c1.592-1.562 2.842-2.966 3.75-3.966 1.936-2.188 4.436-5.154 7.622-8.998 5.5-6.624 12.214-14.964 18.152-22.336 4.03-5 7.84-9.716 10.372-12.778 21.462-26.118 26.086-60.326 26.804-66.95l5.498-51.328-27.148 2.25c-1-5.342-1.938-8.936-2.25-9.998l-16.962-61.636-38.55 30.052-28.428-52.546-22.31 27.43c-5.312-5.436-9.186-8.778-10.278-9.714l-59.888-50.266-9.904 77.538c-0.188 1.438-0.782 6.56-1 14.184l-35.052-4.998 14.776 57.858L0.1 356.61l29.366 56.794c0.532 1 2.25 4.25 5.156 8.842l-21.494 16.776 38.894 33.99zM331.812 842.398l-27.368-28.928c11.966-8.154 19.494-14.87 21.182-16.4l57.608-52.89-75.634-19.87c-1.562-0.406-11.558-2.936-26.46-4.624l10.714-38.458-63.386 7.684c-0.906 0.094-2.968 0.376-5.966 0.844l2.624-56.7L164.988 654.8c-1.686 0.624-8.748 3.282-18.338 8.214l-15.496-26.272-38.738 34.146c-5.718 5.058-34.708 32.05-44.862 69.226-1.282 4.718-3.312 11.81-5.436 19.34-3.124 11.09-6.686 23.648-9.404 33.708a586.548 586.548 0 0 0-3.5 13.622c-0.406 1.812-0.968 4.188-1.374 7.03l-2.468 8.78 2.25 7.058 0.594 10.592 8.498 8.654c1.594 2.188 3.124 3.904 4.28 5.248 2.25 2.592 5.342 5.998 9.434 10.402 7.124 7.654 16.12 17.088 24.054 25.398 5.406 5.654 10.528 10.998 13.84 14.558 26.368 28.116 64.636 38.426 72.04 40.236l50.172 12.092 1.468-30.458c10.966-0.156 18.526-1.124 20.026-1.344l63.324-8.842-28.834-48.922c2.968-1 4.936-1.75 5.686-2.032l59.608-22.836z" fill="#8CC153" p-id="1014"></path><path d="M1023.882 21.494c0-11.808-9.558-21.338-21.338-21.338-1.03 0-2.06 0.094-3.06 0.218-2.5 0.344-62.136 9.186-152.36 35.832-83.102 24.526-208.75 69.45-335.462 144.3-142.988 84.444-258.14 188.91-342.27 310.498C64.05 643.242 7.566 822.5 1.444 1023.844h42.706c6.06-192.16 59.856-363.044 159.888-507.906 80.414-116.434 190.816-216.686 328.15-298.004 122.84-72.698 244.926-116.496 325.684-140.426 87.786-25.992 147.174-34.834 147.766-34.896v-0.032c10.31-1.498 18.244-10.372 18.244-21.086z" fill="#A0D468" p-id="1015"></path></svg>