<svg t="1714380632712" class="icon" viewBox="0 0 1024 1024" version="1.1" xmlns="http://www.w3.org/2000/svg" p-id="31384" width="200" height="200">
<path d="M481.493333 234.666667a78.293333 78.293333 0 1 1-144.64 59.946666c-13.013333-31.573333-11.733333-155.946667-10.666666-206.933333a9.6 9.6 0 0 1 16.426666-6.826667C379.52 115.2 469.333333 202.24 481.493333 234.666667z" fill="#FFE500" p-id="31386"></path><path d="M293.76 336.853333A78.293333 78.293333 0 1 1 234.666667 481.493333c-32.426667-12.16-119.466667-101.973333-154.666667-138.88a9.6 9.6 0 0 1 6.826667-16.426666c50.986667-1.066667 175.36-2.346667 206.933333 10.666666z" fill="#FFE500" p-id="31387"></path><path d="M234.666667 542.506667a78.293333 78.293333 0 1 1 59.946666 144.64c-31.573333 13.013333-155.946667 11.733333-206.933333 10.666666a9.6 9.6 0 0 1-6.826667-16.426666C115.2 644.48 202.24 554.666667 234.666667 542.506667z" fill="#FFE500" p-id="31388"></path><path d="M336.853333 730.24A78.293333 78.293333 0 1 1 481.493333 789.333333c-13.013333 31.573333-101.973333 118.613333-138.88 153.813334a9.6 9.6 0 0 1-16.426666-6.826667c-1.066667-50.133333-2.346667-174.506667 10.666666-206.08z" fill="#FFE500" p-id="31389"></path><path d="M542.506667 789.333333a78.293333 78.293333 0 1 1 144.64-59.946666c13.013333 31.573333 11.733333 155.946667 10.666666 206.933333a9.6 9.6 0 0 1-16.426666 6.826667C644.48 908.8 554.666667 821.76 542.506667 789.333333z" fill="#FFE500" p-id="31390"></path><path d="M730.24 687.146667A78.293333 78.293333 0 1 1 789.333333 542.506667c31.573333 13.013333 118.613333 101.973333 153.813334 138.88a9.6 9.6 0 0 1-6.826667 16.426666c-50.133333 1.066667-174.506667 2.346667-206.08-10.666666z" fill="#FFE500" p-id="31391"></path><path d="M789.333333 481.493333a78.293333 78.293333 0 1 1-59.946666-144.64c31.573333-13.013333 155.946667-11.733333 206.933333-10.666666a9.6 9.6 0 0 1 6.826667 16.426666C908.8 379.52 821.76 469.333333 789.333333 481.493333z" fill="#FFE500" p-id="31392"></path><path d="M687.146667 293.76A78.293333 78.293333 0 1 1 542.506667 234.666667c12.16-32.426667 101.973333-119.466667 138.88-154.666667a9.6 9.6 0 0 1 16.426666 6.826667c1.066667 50.986667 2.346667 175.36-10.666666 206.933333z" fill="#FFE500" p-id="31393"></path><path d="M439.253333 336.213333a78.293333 78.293333 0 0 0 42.666667-102.4 141.44 141.44 0 0 0-21.333333-30.506666 309.12 309.12 0 0 0-131.2 54.4 143.786667 143.786667 0 0 0 7.04 36.053333 78.506667 78.506667 0 0 0 102.826666 42.453333zM336.213333 439.04a78.506667 78.506667 0 0 0-42.666666-102.186667 143.786667 143.786667 0 0 0-36.053334-7.04 309.12 309.12 0 0 0-54.4 131.2 141.44 141.44 0 0 0 30.506667 21.333334 78.293333 78.293333 0 0 0 102.613333-43.306667zM336.213333 584.746667a78.293333 78.293333 0 0 0-102.4-42.666667 141.44 141.44 0 0 0-30.506666 21.333333 309.12 309.12 0 0 0 54.4 131.2 143.786667 143.786667 0 0 0 36.053333-7.04 78.506667 78.506667 0 0 0 42.453333-102.826666zM439.253333 687.786667a78.506667 78.506667 0 0 0-102.4 42.666666 143.786667 143.786667 0 0 0-7.04 36.053334 309.12 309.12 0 0 0 131.2 54.4 141.44 141.44 0 0 0 21.333334-30.506667 78.293333 78.293333 0 0 0-43.093334-102.613333zM584.746667 687.786667a78.293333 78.293333 0 0 0-42.666667 102.4 141.44 141.44 0 0 0 21.333333 30.506666 309.12 309.12 0 0 0 131.2-54.4 143.786667 143.786667 0 0 0-7.04-36.053333 78.506667 78.506667 0 0 0-102.826666-42.453333zM789.333333 542.506667a78.293333 78.293333 0 1 0-59.946666 144.64 143.786667 143.786667 0 0 0 36.053333 7.04 309.12 309.12 0 0 0 54.4-131.2 141.44 141.44 0 0 0-30.506667-20.48zM687.786667 439.04a78.293333 78.293333 0 0 0 102.4 42.666667 141.44 141.44 0 0 0 30.506666-21.333334 309.12 309.12 0 0 0-54.4-131.2 143.786667 143.786667 0 0 0-36.053333 7.04 78.506667 78.506667 0 0 0-42.453333 102.826667zM584.746667 336.213333a78.506667 78.506667 0 0 0 102.4-42.666666 143.786667 143.786667 0 0 0 7.04-36.053334 309.12 309.12 0 0 0-131.2-54.4 141.44 141.44 0 0 0-21.333334 30.506667 78.293333 78.293333 0 0 0 43.093334 102.613333z" fill="#EBCB00" p-id="31394"></path><path d="M377.386667 266.666667a78.293333 78.293333 0 0 1-110.72 110.72c-24.106667-24.106667-70.613333-139.52-88.96-187.093334a9.6 9.6 0 0 1 12.586666-12.586666c47.573333 18.346667 162.986667 64.853333 187.093334 88.96z" fill="#FFE500" p-id="31395"></path><path d="M243.413333 433.706667a78.293333 78.293333 0 0 1 0 156.586666c-34.133333 0-149.333333-48.853333-195.413333-69.333333a9.813333 9.813333 0 0 1 0-17.92c46.72-20.48 161.28-69.333333 195.413333-69.333333z" fill="#FFE500" p-id="31396"></path><path d="M266.666667 646.613333a78.293333 78.293333 0 0 1 110.72 110.72c-24.106667 24.106667-139.52 70.613333-187.093334 88.96a9.6 9.6 0 0 1-12.586666-12.586666c18.346667-47.573333 64.853333-162.986667 88.96-187.093334z" fill="#FFE500" p-id="31397"></path><path d="M433.706667 780.586667a78.293333 78.293333 0 0 1 156.586666 0c0 34.133333-48.853333 149.333333-69.333333 195.413333a9.813333 9.813333 0 0 1-17.92 0c-20.48-46.72-69.333333-161.28-69.333333-195.413333z" fill="#FFE500" p-id="31398"></path><path d="M646.613333 757.333333a78.293333 78.293333 0 0 1 110.72-110.72c24.106667 24.106667 70.613333 139.52 88.96 187.093334a9.6 9.6 0 0 1-12.586666 12.586666c-47.573333-18.346667-162.986667-64.853333-187.093334-88.96z" fill="#FFE500" p-id="31399"></path><path d="M780.586667 590.293333a78.293333 78.293333 0 0 1 0-156.586666c34.133333 0 149.333333 48.853333 195.413333 69.333333a9.813333 9.813333 0 0 1 0 17.92c-46.72 20.48-161.28 69.333333-195.413333 69.333333z" fill="#FFE500" p-id="31400"></path><path d="M757.333333 377.386667a78.293333 78.293333 0 0 1-110.72-110.72c24.106667-24.106667 139.52-70.613333 187.093334-88.96a9.6 9.6 0 0 1 12.586666 12.586666c-18.346667 47.573333-64.853333 162.986667-88.96 187.093334z" fill="#FFE500" p-id="31401"></path><path d="M590.293333 243.413333a78.293333 78.293333 0 0 1-156.586666 0c0-34.133333 48.853333-149.333333 69.333333-195.413333a9.813333 9.813333 0 0 1 17.92 0c20.48 46.72 69.333333 161.28 69.333333 195.413333z" fill="#FFE500" p-id="31402"></path><path d="M377.386667 377.386667a78.506667 78.506667 0 0 0 0-110.72 139.946667 139.946667 0 0 0-30.72-20.266667 316.8 316.8 0 0 0-100.266667 100.266667 139.946667 139.946667 0 0 0 20.266667 30.72 78.506667 78.506667 0 0 0 110.72 0zM321.706667 512a78.293333 78.293333 0 0 0-78.293334-78.293333 149.333333 149.333333 0 0 0-36.266666 7.253333 307.413333 307.413333 0 0 0 0 142.08 149.333333 149.333333 0 0 0 36.266666 7.253333A78.293333 78.293333 0 0 0 321.706667 512zM377.386667 646.613333a78.506667 78.506667 0 0 0-110.72 0 139.946667 139.946667 0 0 0-20.266667 30.72 316.8 316.8 0 0 0 100.266667 100.266667 139.946667 139.946667 0 0 0 30.72-21.333333 78.506667 78.506667 0 0 0 0-109.653334zM512 702.293333a78.293333 78.293333 0 0 0-78.293333 78.293334 149.333333 149.333333 0 0 0 7.253333 36.266666 307.413333 307.413333 0 0 0 142.08 0 149.333333 149.333333 0 0 0 7.253333-36.266666A78.293333 78.293333 0 0 0 512 702.293333zM646.613333 646.613333a78.506667 78.506667 0 0 0 0 110.72 139.946667 139.946667 0 0 0 30.72 21.333334 316.8 316.8 0 0 0 100.266667-100.266667 139.946667 139.946667 0 0 0-21.333333-30.72 78.506667 78.506667 0 0 0-109.653334-1.066667zM816.853333 440.96a149.333333 149.333333 0 0 0-36.266666-7.253333 78.293333 78.293333 0 0 0 0 156.586666 149.333333 149.333333 0 0 0 36.266666-7.253333 307.413333 307.413333 0 0 0 0-142.08zM646.613333 377.386667a78.506667 78.506667 0 0 0 110.72 0 139.946667 139.946667 0 0 0 21.333334-30.72 316.8 316.8 0 0 0-100.266667-100.266667 139.946667 139.946667 0 0 0-30.72 20.266667 78.506667 78.506667 0 0 0-1.066667 110.72zM512 321.706667a78.293333 78.293333 0 0 0 78.293333-78.293334 149.333333 149.333333 0 0 0-7.253333-36.266666 307.413333 307.413333 0 0 0-142.08 0 149.333333 149.333333 0 0 0-7.253333 36.266666A78.293333 78.293333 0 0 0 512 321.706667z" fill="#EBCB00" p-id="31403"></path><path d="M512 512m-272 0a272 272 0 1 0 544 0 272 272 0 1 0-544 0Z" fill="#FFAA54" p-id="31404"></path><path d="M537.386667 241.28a247.253333 247.253333 0 1 1-50.773334 0 272 272 0 1 0 50.773334 0z" fill="#FF8A14" p-id="31405"></path><path d="M347.093333 561.493333c0 8.96 11.093333 16.426667 24.746667 16.426667s24.746667-7.466667 24.746667-16.426667-11.093333-16.426667-24.746667-16.426666-24.746667 7.253333-24.746667 16.426666z" fill="#FF8A14" p-id="31406"></path><path d="M576 602.666667a16.64 16.64 0 0 1 16 21.333333 82.56 82.56 0 0 1-159.573333 0 16.64 16.64 0 0 1 16-21.333333z" fill="#FFB0CA" p-id="31407"></path><path d="M512 685.013333a81.92 81.92 0 0 0 64-32 128 128 0 0 0-129.706667 0 81.92 81.92 0 0 0 65.706667 32z" fill="#FF87AF" p-id="31408"></path><path d="M676.906667 561.493333c0 8.96-11.093333 16.426667-24.746667 16.426667s-24.746667-7.466667-24.746667-16.426667 11.093333-16.426667 24.746667-16.426666 24.746667 7.253333 24.746667 16.426666z" fill="#FF8A14" p-id="31409"></path><path d="M446.08 338.986667a65.92 16.426667 0 1 0 131.84 0 65.92 16.426667 0 1 0-131.84 0Z" fill="#FFCC99" p-id="31410"></path></svg>